<svg preserveAspectRatio="none" overflow="visible" style="display: block;" width="40" height="40" viewBox="0 0 40 40" fill="none" xmlns="http://www.w3.org/2000/svg">
<g id="SVG">
<path id="Vector" d="M10.9091 9.09091L29.0909 14.5455" stroke="#2D3947" stroke-width="0.909091"/>
<path id="Vector_2" d="M10.9091 20L29.0909 14.5455" stroke="#2D3947" stroke-width="0.909091"/>
<path id="Vector_3" d="M10.9091 20L29.0909 27.2727" stroke="#2D3947" stroke-width="0.909091"/>
<path id="Vector_4" d="M10.9091 30.9091L29.0909 27.2727" stroke="#2D3947" stroke-width="0.909091"/>
<path id="Vector_5" d="M8.90909 9.09091C8.90909 10.1947 9.80526 11.0909 10.9091 11.0909C12.0129 11.0909 12.9091 10.1947 12.9091 9.09091C12.9091 7.98708 12.0129 7.09091 10.9091 7.09091C9.80526 7.09091 8.90909 7.98708 8.90909 9.09091V9.09091" fill="#95D2CA"/>
<path id="Vector_6" d="M8.63636 20C8.63636 21.2544 9.65474 22.2727 10.9091 22.2727C12.1634 22.2727 13.1818 21.2544 13.1818 20C13.1818 18.7456 12.1634 17.7273 10.9091 17.7273C9.65474 17.7273 8.63636 18.7456 8.63636 20V20" fill="#F2CA50"/>
<path id="Vector_7" d="M8.90909 30.9091C8.90909 32.0129 9.80526 32.9091 10.9091 32.9091C12.0129 32.9091 12.9091 32.0129 12.9091 30.9091C12.9091 29.8053 12.0129 28.9091 10.9091 28.9091C9.80526 28.9091 8.90909 29.8053 8.90909 30.9091V30.9091" fill="#95D2CA"/>
<path id="Vector_8" d="M26.5455 14.5455C26.5455 15.9503 27.686 17.0909 29.0909 17.0909C30.4958 17.0909 31.6364 15.9503 31.6364 14.5455C31.6364 13.1406 30.4958 12 29.0909 12C27.686 12 26.5455 13.1406 26.5455 14.5455V14.5455" fill="#FFBFB9"/>
<path id="Vector_9" d="M26.9091 27.2727C26.9091 28.4769 27.8867 29.4545 29.0909 29.4545C30.2951 29.4545 31.2727 28.4769 31.2727 27.2727C31.2727 26.0685 30.2951 25.0909 29.0909 25.0909C27.8867 25.0909 26.9091 26.0685 26.9091 27.2727V27.2727" fill="#8D9AAB"/>
</g>
</svg>
